<?xml version="1.0" standalone="no"?><!--
The MIT License (MIT)

Copyright (c) 2016

Permission is hereby granted, free of charge, to any person obtaining a copy
of this software and associated documentation files (the "Software"), to deal
in the Software without restriction, including without limitation the rights
to use, copy, modify, merge, publish, distribute, sublicense, and/or sell
copies of the Software, and to permit persons to whom the Software is
furnished to do so, subject to the following conditions:

The above copyright notice and this permission notice shall be included in all
copies or substantial portions of the Software.

THE SOFTWARE IS PROVIDED "AS IS", WITHOUT WARRANTY OF ANY KIND, EXPRESS OR
IMPLIED, INCLUDING BUT NOT LIMITED TO THE WARRANTIES OF MERCHANTABILITY,
FITNESS FOR A PARTICULAR PURPOSE AND NONINFRINGEMENT. IN NO EVENT SHALL THE
AUTHORS OR COPYRIGHT HOLDERS BE LIABLE FOR ANY CLAIM, DAMAGES OR OTHER
LIABILITY, WHETHER IN AN ACTION OF CONTRACT, TORT OR OTHERWISE, ARISING FROM,
OUT OF OR IN CONNECTION WITH THE SOFTWARE OR THE USE OR OTHER DEALINGS IN THE
SOFTWARE.
-->
<!-- convert -background none guardian.svg -resize 36x36 ../mipmap-ldpi/ic_launcher.png -->
<!-- convert -background none guardian.svg -resize 48x48 ../mipmap-mdpi/ic_launcher.png -->
<!-- convert -background none guardian.svg -resize 72x72 ../mipmap-hdpi/ic_launcher.png -->
<!-- convert -background none guardian.svg -resize 96x96 ../mipmap-xhdpi/ic_launcher.png -->
<!-- convert -background none guardian.svg -resize 144x144 ../mipmap-xxhdpi/ic_launcher.png -->
<!-- convert guardian.svg -resize 1024x500 -gravity center -extent 1024x500 ../../../../../doc/feature.png -->
<!DOCTYPE svg PUBLIC "-//W3C//DTD SVG 1.1//EN" "http://www.w3.org/Graphics/SVG/1.1/DTD/svg11.dtd">
<svg width="512" height="512" viewBox="0 0 512 512" xmlns="http://www.w3.org/2000/svg" xmlns:xlink="http://www.w3.org/1999/xlink" version="1.1">
<path d="M90,0 A90,90 0 0,0 0,90 L0,422 A90,90 0 0,0 90,512 L422,512 A90,90 0 0,0 512,422 L512,90 A90,90 0 0,0 422,0 Z" fill="#FFFFFF"/>
<g transform="translate(140 50)">
<g transform="scale(0.8 0.8)">
<g transform="rotate(-60 130 218)">
<path style="fill:#000000" d="M 183 37 c 0 21 -17 37 -37 37 -21 0 -37 -17 -37 -37 0 -21 17 -37 37 -37 21 0 37 17 37 37 z M 90 151 s -30 158 -37 168 c -6 9 -49 81 -49 81 -9 15 0 26 9 32 8 5 26 4 32 -7 0 0 48 -75 54 -92 4 -11 12 -58 12 -58 s 47 48 52 57 c 6 11 19 87 19 87 3 14 16 18 29 16 11 -2 22 -9 19 -22 0 0 -11 -88 -19 -103 -10 -17 -65 -76 -65 -76 l 16 -70 s 10 20 17 29 c 8 10 59 39 59 39 5 3 15 1 19 -6 3 -6 3 -16 -4 -21 0 0 -42 -26 -51 -34 -11 -9 -33 -69 -33 -69 -7 -9 -16 -20 -32 -20 -16 0 -24 9 -31 14 0 0 -62 45 -68 54 -6 9 -17 79 -17 79 -2 8 1 14 11 16 11 3 20 -4 21 -10 0 0 7 -55 12 -63 6 -9 26 -21 26 -21 z"/>
</g>
</g>
</g>
<line x1="62" y1="420" x2="450" y2="420" style="stroke:#000000; stroke-width:16;"/>
</svg>
