<?xml version="1.0" standalone="no"?>
<svg width="512" height="512" viewBox="0 0 512 512" xmlns="http://www.w3.org/2000/svg" xmlns:svg="http://www.w3.org/2000/svg" version="1.1">
<path d="M90,0 A90,90 0 0,0 0,90 L0,422 A90,90 0 0,0 90,512 L422,512 A90,90 0 0,0 512,422 L512,90 A90,90 0 0,0 422,0 Z" fill="#FFFFFF"/>
<path style="fill:#000000" d="M 139.8 115.3 C 154.4 123.7 158.6 141.9 150.6 155.7 C 142.2 170.3 124.1 174.6 110.2 166.6 C 95.7 158.2 91.4 140.0 99.4 126.1 C 107.8 111.6 125.9 107.3 139.8 115.3 Z M 181.6 225.3 C 181.6 225.3 279.1 309.3 283.2 318.2 C 287.0 325.9 319.7 384.5 319.7 384.5 C 326.5 396.7 337.7 394.9 345.5 391.1 C 352.2 387.5 358.6 374.7 353.4 366.1 C 353.4 366.1 320.7 302.8 311.3 291.9 C 305.3 284.7 275.9 260.4 275.9 260.4 C 275.9 260.4 328.0 247.0 336.2 247.1 C 346.2 247.4 404.1 268.8 404.1 268.8 C 415.0 272.3 422.9 264.9 426.7 255.1 C 429.8 246.7 429.3 236.2 419.1 233.1 C 419.1 233.1 353.7 205.5 340.1 205.1 C 324.4 205.2 261.5 219.7 261.5 219.7 L 219.4 180.6 C 219.4 180.6 237.2 181.7 246.3 180.5 C 256.4 178.9 296.9 155.2 296.9 155.2 C 301.0 152.9 303.6 145.2 300.3 139.6 C 297.4 135.1 290.5 131.1 284.2 134.0 C 284.2 134.0 249.4 152.7 240.2 155.7 C 229.6 159.7 179.2 151.0 179.2 151.0 C 170.2 152.2 159.0 154.1 152.6 165.2 C 146.2 176.2 149.2 185.4 149.9 192.2 C 149.9 192.2 156.3 253.2 160.1 260.9 C 163.9 268.7 208.0 304.3 208.0 304.3 C 212.8 308.9 218.1 309.2 223.5 303.1 C 230.0 296.7 228.7 287.6 225.0 284.6 C 225.0 284.6 189.7 257.7 186.1 251.0 C 182.3 243.3 182.0 224.6 182.0 224.6 Z"/>
<path style="fill:#000000" d="M 128 412 L 383 412 L 383 428 L 128 428 Z"/>
</svg>
