<?xml version="1.0" standalone="no"?><!--
This code is free  software: you can redistribute it and/or  modify it under the
terms of the GNU Lesser General Public License as published by the Free Software
Foundation,  either version  3 of  the License,  or (at  your option)  any later
version.

This code  is distributed in the  hope that it  will be useful, but  WITHOUT ANY
WARRANTY; without even the implied warranty  of MERCHANTABILITY or FITNESS FOR A
PARTICULAR PURPOSE. See the GNU Lesser  General Public License for more details.

You should have  received a copy of the GNU  Lesser General Public License along
with code. If not, see http://www.gnu.org/licenses/.
-->
<!DOCTYPE svg PUBLIC "-//W3C//DTD SVG 1.1//EN" "http://www.w3.org/Graphics/SVG/1.1/DTD/svg11.dtd">
<svg width="512" height="512" viewBox="0 0 512 512" xmlns="http://www.w3.org/2000/svg" xmlns:xlink="http://www.w3.org/1999/xlink" version="1.1">
  <path d="M90,0 A90,90 0 0,0 0,90 L0,422 A90,90 0 0,0 90,512 L422,512 A90,90 0 0,0 512,422 L512,90 A90,90 0 0,0 422,0 Z" fill="#FFFFFF"/>
  <path d="M165,350 A84,80 0 1,1 165,190 A90,75 0 1,1 355,220 A78,65 0 1,1 355,350 Z" fill="none" stroke="black" stroke-width="24"/>
  <path d="M230,300 L230,260 L190,260 L256,190 L322,260 L282,260 L282,300 Z" fill="black" stroke="none"/>
</svg> 