<?xml version="1.0" standalone="no"?><!--
The MIT License (MIT)

Copyright (c) 2016

Permission is hereby granted, free of charge, to any person obtaining a copy
of this software and associated documentation files (the "Software"), to deal
in the Software without restriction, including without limitation the rights
to use, copy, modify, merge, publish, distribute, sublicense, and/or sell
copies of the Software, and to permit persons to whom the Software is
furnished to do so, subject to the following conditions:

The above copyright notice and this permission notice shall be included in all
copies or substantial portions of the Software.

THE SOFTWARE IS PROVIDED "AS IS", WITHOUT WARRANTY OF ANY KIND, EXPRESS OR
IMPLIED, INCLUDING BUT NOT LIMITED TO THE WARRANTIES OF MERCHANTABILITY,
FITNESS FOR A PARTICULAR PURPOSE AND NONINFRINGEMENT. IN NO EVENT SHALL THE
AUTHORS OR COPYRIGHT HOLDERS BE LIABLE FOR ANY CLAIM, DAMAGES OR OTHER
LIABILITY, WHETHER IN AN ACTION OF CONTRACT, TORT OR OTHERWISE, ARISING FROM,
OUT OF OR IN CONNECTION WITH THE SOFTWARE OR THE USE OR OTHER DEALINGS IN THE
SOFTWARE.
-->
<!-- convert -background none icon.svg -resize 36x36 ../mipmap-ldpi/ic_launcher.png -->
<!-- convert -background none icon.svg -resize 48x48 ../mipmap-mdpi/ic_launcher.png -->
<!-- convert -background none icon.svg -resize 72x72 ../mipmap-hdpi/ic_launcher.png -->
<!-- convert -background none icon.svg -resize 96x96 ../mipmap-xhdpi/ic_launcher.png -->
<!-- convert -background none icon.svg -resize 144x144 ../mipmap-xxhdpi/ic_launcher.png -->
<!-- convert -background none icon.svg -resize 512x512 ../../../../../doc/icon.png -->
<!-- convert icon.svg -resize 1024x500 -gravity center -extent 1024x500 ../../../../../doc/feature.png -->
<!DOCTYPE svg PUBLIC "-//W3C//DTD SVG 1.1//EN" "http://www.w3.org/Graphics/SVG/1.1/DTD/svg11.dtd">
<svg width="512" height="512" viewBox="0 0 512 512" xmlns="http://www.w3.org/2000/svg" xmlns:xlink="http://www.w3.org/1999/xlink" version="1.1">
  <path d="M90,0 A90,90 0 0,0 0,90 L0,422 A90,90 0 0,0 90,512 L422,512 A90,90 0 0,0 512,422 L512,90 A90,90 0 0,0 422,0 Z" fill="#FFFFFF"/>
  <path d="M165,350 A84,80 0 1,1 165,190 A90,75 0 1,1 355,220 A78,65 0 1,1 355,350 Z" fill="none" stroke="black" stroke-width="24"/>
  <path d="M230,300 L230,260 L190,260 L256,190 L322,260 L282,260 L282,300 Z" fill="black" stroke="none"/>
</svg>
